# xmcd CD database file
#
# Track frame offsets:
#	150
#	12885
#	22268
#	32557
#	44524
#	56280
#	63926
#	72367
#	84157
#	95316
#	102045
#	113289
#	125618
#	137702
#	148178
#	155821
#	165882
#	173850
#
# Disc length: 2454 seconds
#
# Revision: 4
# Processed by: cddbd v1.5.2PL0 Copyright (c) Steve Scherf et al.
# Submitted via: CDex 1.51
#
DISCID=e5099412
DTITLE=Johnny Cash - Walking The Line_The Legendary Sun Recordings - CD2
DYEAR=2005
DGENRE=Country
TTITLE0=Folsom Prison Blues
TTITLE1=Luther Played The Boogie
TTITLE2=Straight A's In Love
TTITLE3=Home Of The Blues
TTITLE4=Port Of Lonely Hearts
TTITLE5=Come In Stranger
TTITLE6=Country Boy
TTITLE7=Wide Open Road
TTITLE8=Don't Make Me Go
TTITLE9=Leave That Junk Alone
TTITLE10=Mean Eyed Cat
TTITLE11=Next In Line
TTITLE12=Give My Love To Rose
TTITLE13=Cold Cold Heart(Hank Williams)
TTITLE14=Hey Good Lookin'(hank williams)
TTITLE15=I Could Never Be Ashamed Of You(hank williams)
TTITLE16=I Can't Help It (If I'm Still In Love With You)
TTITLE17=You Win Again(Hank Williams)
EXTD=YEAR: 2005
EXTT0=
EXTT1=
EXTT2=
EXTT3=
EXTT4=
EXTT5=
EXTT6=
EXTT7=
EXTT8=
EXTT9=
EXTT10=
EXTT11=
EXTT12=
EXTT13=
EXTT14=
EXTT15=
EXTT16=
EXTT17=
PLAYORDER=
